<svg xmlns="http://www.w3.org/2000/svg" version="1.1" xmlns:xlink="http://www.w3.org/1999/xlink" xmlns:svgjs="http://svgjs.dev/svgjs" width="1440" height="560" preserveAspectRatio="none" viewBox="0 0 1440 560"><g mask="url(&quot;#SvgjsMask1140&quot;)" fill="none"><rect width="1440" height="560" x="0" y="0" fill="rgba(5, 15, 25, 1)"></rect><path d="M -125.34684471964977,138 C -29.35,180 162.65,349 354.65315528035023,348 C 546.65,347 642.65,114.6 834.6531552803502,133 C 1026.65,151.4 1122.65,414.6 1314.6531552803503,440 C 1506.65,465.4 1769.58,266 1794.6531552803503,260 C 1819.72,254 1510.93,380 1440,410" stroke="rgba(51, 121, 194, 0.58)" stroke-width="2"></path><path d="M -737.0432683842773,354 C -641.04,320.4 -449.04,188.6 -257.04326838427727,186 C -65.04,183.4 30.96,348.4 222.95673161572273,341 C 414.96,333.6 510.96,150 702.9567316157227,149 C 894.96,148 1035.55,329.2 1182.9567316157227,336 C 1330.37,342.8 1388.59,213.6 1440,183" stroke="rgba(51, 121, 194, 0.58)" stroke-width="2"></path><path d="M -391.05011740149166,249 C -295.05,266.6 -103.05,347 88.94988259850837,337 C 280.95,327 376.95,186.8 568.9498825985083,199 C 760.95,211.2 856.95,405.8 1048.9498825985083,398 C 1240.95,390.2 1450.74,151.8 1528.9498825985083,160 C 1607.16,168.2 1457.79,383.2 1440,439" stroke="rgba(51, 121, 194, 0.58)" stroke-width="2"></path><path d="M -716.1256843324143,256 C -620.13,268.2 -428.13,313.6 -236.1256843324142,317 C -44.13,320.4 51.87,259.8 243.8743156675858,273 C 435.87,286.2 531.87,402.6 723.8743156675857,383 C 915.87,363.4 1060.65,162.8 1203.8743156675857,175 C 1347.1,187.2 1392.77,390.2 1440,444" stroke="rgba(51, 121, 194, 0.58)" stroke-width="2"></path><path d="M -312.7744538929295,133 C -216.77,169.8 -24.77,308.2 167.2255461070705,317 C 359.23,325.8 455.23,176.4 647.2255461070705,177 C 839.23,177.6 935.23,323.8 1127.2255461070704,320 C 1319.23,316.2 1544.67,155 1607.2255461070704,158 C 1669.78,161 1473.45,299.6 1440,335" stroke="rgba(51, 121, 194, 0.58)" stroke-width="2"></path><path d="M -708.6705224311581,206 C -612.67,247.8 -420.67,417 -228.67052243115808,415 C -36.67,413 59.33,196.8 251.32947756884192,196 C 443.33,195.2 539.33,399.4 731.3294775688419,411 C 923.33,422.6 1069.6,259 1211.3294775688419,254 C 1353.06,249 1394.27,359.6 1440,386" stroke="rgba(51, 121, 194, 0.58)" stroke-width="2"></path><path d="M -591.4718782463513,168 C -495.47,217.4 -303.47,419.6 -111.47187824635122,415 C 80.53,410.4 176.53,141.4 368.52812175364875,145 C 560.53,148.6 656.53,411.4 848.5281217536487,433 C 1040.53,454.6 1210.23,269.8 1328.5281217536487,253 C 1446.82,236.2 1417.71,329.8 1440,349" stroke="rgba(51, 121, 194, 0.58)" stroke-width="2"></path></g><defs><mask id="SvgjsMask1140"><rect width="1440" height="560" fill="#ffffff"></rect></mask></defs></svg>